<svg width="4" height="3" viewBox="0 0 4 3" fill="none" xmlns="http://www.w3.org/2000/svg">
<path d="M2.198 2.924C1.974 2.924 1.764 2.87267 1.568 2.77C1.372 2.658 1.21333 2.504 1.092 2.308C0.98 2.112 0.924 1.888 0.924 1.636C0.924 1.39333 0.98 1.17867 1.092 0.992C1.21333 0.796 1.372 0.642 1.568 0.53C1.764 0.418 1.974 0.362 2.198 0.362C2.43133 0.362 2.64133 0.418 2.828 0.53C3.024 0.642 3.178 0.796 3.29 0.992C3.402 1.17867 3.458 1.39333 3.458 1.636C3.458 1.888 3.402 2.112 3.29 2.308C3.178 2.504 3.024 2.658 2.828 2.77C2.64133 2.87267 2.43133 2.924 2.198 2.924Z" fill="#112211"/>
</svg>
