<svg width="488" height="52" viewBox="0 0 488 52" fill="none" xmlns="http://www.w3.org/2000/svg">
<mask id="path-1-inside-1_201_525" fill="white">
<path d="M0 0H488V52H0V0Z"/>
</mask>
<path d="M488 51H0V53H488V51Z" fill="#D0D5DD" mask="url(#path-1-inside-1_201_525)"/>
<path fill-rule="evenodd" clip-rule="evenodd" d="M4.07663 20.5307C4.23287 20.0186 4.70913 19.646 5.27242 19.646H19.2724C19.8357 19.646 20.312 20.0186 20.4682 20.5307L12.2724 25.9946L4.07663 20.5307ZM2.52245 20.8823C2.52231 20.8903 2.5223 20.8983 2.52242 20.9063V30.896C2.52242 32.4148 3.75364 33.646 5.27242 33.646H19.2724C20.7912 33.646 22.0224 32.4148 22.0224 30.896V20.9062M20.5224 22.2974V30.896C20.5224 31.5864 19.9628 32.146 19.2724 32.146H5.27242C4.58206 32.146 4.02242 31.5864 4.02242 30.896V22.2974L11.8564 27.52C12.1083 27.688 12.4365 27.688 12.6884 27.52L20.5224 22.2974ZM22.0224 20.8823C22.015 19.3698 20.7866 18.146 19.2724 18.146H5.27242C3.75822 18.146 2.52985 19.3698 2.52245 20.8823" fill="#282828"/>
<path d="M33.4091 32V20.3636H40.4318V21.6136H34.8182V25.5455H40.0682V26.7955H34.8182V30.75H40.5227V32H33.4091ZM42.7898 32V23.2727H44.0852V24.6364H44.1989C44.3807 24.1705 44.6742 23.8087 45.0795 23.5511C45.4848 23.2898 45.9716 23.1591 46.5398 23.1591C47.1155 23.1591 47.5947 23.2898 47.9773 23.5511C48.3636 23.8087 48.6648 24.1705 48.8807 24.6364H48.9716C49.1951 24.1856 49.5303 23.8277 49.9773 23.5625C50.4242 23.2936 50.9602 23.1591 51.5852 23.1591C52.3655 23.1591 53.0038 23.4034 53.5 23.892C53.9962 24.3769 54.2443 25.1326 54.2443 26.1591V32H52.9034V26.1591C52.9034 25.5152 52.7273 25.0549 52.375 24.7784C52.0227 24.5019 51.608 24.3636 51.1307 24.3636C50.517 24.3636 50.0417 24.5492 49.7045 24.9205C49.3674 25.2879 49.1989 25.7538 49.1989 26.3182V32H47.8352V26.0227C47.8352 25.5265 47.6742 25.1269 47.3523 24.8239C47.0303 24.517 46.6155 24.3636 46.108 24.3636C45.7595 24.3636 45.4337 24.4564 45.1307 24.642C44.8314 24.8277 44.589 25.0852 44.4034 25.4148C44.2216 25.7405 44.1307 26.1174 44.1307 26.5455V32H42.7898ZM59.2642 32.2045C58.7112 32.2045 58.2093 32.1004 57.7585 31.892C57.3078 31.6799 56.9498 31.375 56.6847 30.9773C56.4195 30.5758 56.2869 30.0909 56.2869 29.5227C56.2869 29.0227 56.3854 28.6174 56.5824 28.3068C56.7794 27.9924 57.0426 27.7462 57.3722 27.5682C57.7017 27.3902 58.0653 27.2576 58.4631 27.1705C58.8646 27.0795 59.268 27.0076 59.6733 26.9545C60.2036 26.8864 60.6335 26.8352 60.9631 26.8011C61.2964 26.7633 61.5388 26.7008 61.6903 26.6136C61.8456 26.5265 61.9233 26.375 61.9233 26.1591V26.1136C61.9233 25.553 61.7699 25.1174 61.4631 24.8068C61.16 24.4962 60.6998 24.3409 60.0824 24.3409C59.4422 24.3409 58.9403 24.4811 58.5767 24.7614C58.2131 25.0417 57.9574 25.3409 57.8097 25.6591L56.5369 25.2045C56.7642 24.6742 57.0672 24.2614 57.446 23.9659C57.8286 23.6667 58.2453 23.4583 58.696 23.3409C59.1506 23.2197 59.5975 23.1591 60.0369 23.1591C60.3172 23.1591 60.6392 23.1932 61.0028 23.2614C61.3703 23.3258 61.7244 23.4602 62.0653 23.6648C62.41 23.8693 62.696 24.178 62.9233 24.5909C63.1506 25.0038 63.2642 25.5568 63.2642 26.25V32H61.9233V30.8182H61.8551C61.7642 31.0076 61.6127 31.2102 61.4006 31.4261C61.1884 31.642 60.9063 31.8258 60.554 31.9773C60.2017 32.1288 59.7718 32.2045 59.2642 32.2045ZM59.4688 31C59.9991 31 60.446 30.8958 60.8097 30.6875C61.1771 30.4792 61.4536 30.2102 61.6392 29.8807C61.8286 29.5511 61.9233 29.2045 61.9233 28.8409V27.6136C61.8665 27.6818 61.7415 27.7443 61.5483 27.8011C61.3589 27.8542 61.1392 27.9015 60.8892 27.9432C60.643 27.9811 60.4025 28.0152 60.1676 28.0455C59.9366 28.072 59.7491 28.0947 59.6051 28.1136C59.2566 28.1591 58.9309 28.233 58.6278 28.3352C58.3286 28.4337 58.0862 28.5833 57.9006 28.7841C57.7188 28.9811 57.6278 29.25 57.6278 29.5909C57.6278 30.0568 57.8002 30.4091 58.1449 30.6477C58.4934 30.8826 58.9347 31 59.4688 31ZM65.7116 32V23.2727H67.0526V32H65.7116ZM66.3935 21.8182C66.1321 21.8182 65.9067 21.7292 65.7173 21.5511C65.5317 21.3731 65.4389 21.1591 65.4389 20.9091C65.4389 20.6591 65.5317 20.4451 65.7173 20.267C65.9067 20.089 66.1321 20 66.3935 20C66.6548 20 66.8783 20.089 67.0639 20.267C67.2533 20.4451 67.348 20.6591 67.348 20.9091C67.348 21.1591 67.2533 21.3731 67.0639 21.5511C66.8783 21.7292 66.6548 21.8182 66.3935 21.8182ZM70.8494 20.3636V32H69.5085V20.3636H70.8494ZM80.3736 32.2045C79.8205 32.2045 79.3187 32.1004 78.8679 31.892C78.4171 31.6799 78.0592 31.375 77.794 30.9773C77.5289 30.5758 77.3963 30.0909 77.3963 29.5227C77.3963 29.0227 77.4948 28.6174 77.6918 28.3068C77.8887 27.9924 78.152 27.7462 78.4815 27.5682C78.8111 27.3902 79.1747 27.2576 79.5724 27.1705C79.974 27.0795 80.3774 27.0076 80.7827 26.9545C81.313 26.8864 81.7429 26.8352 82.0724 26.8011C82.4058 26.7633 82.6482 26.7008 82.7997 26.6136C82.955 26.5265 83.0327 26.375 83.0327 26.1591V26.1136C83.0327 25.553 82.8793 25.1174 82.5724 24.8068C82.2694 24.4962 81.8092 24.3409 81.1918 24.3409C80.5516 24.3409 80.0497 24.4811 79.6861 24.7614C79.3224 25.0417 79.0668 25.3409 78.919 25.6591L77.6463 25.2045C77.8736 24.6742 78.1766 24.2614 78.5554 23.9659C78.938 23.6667 79.3546 23.4583 79.8054 23.3409C80.2599 23.2197 80.7069 23.1591 81.1463 23.1591C81.4266 23.1591 81.7486 23.1932 82.1122 23.2614C82.4796 23.3258 82.8338 23.4602 83.1747 23.6648C83.5194 23.8693 83.8054 24.178 84.0327 24.5909C84.2599 25.0038 84.3736 25.5568 84.3736 26.25V32H83.0327V30.8182H82.9645C82.8736 31.0076 82.7221 31.2102 82.5099 31.4261C82.2978 31.642 82.0156 31.8258 81.6634 31.9773C81.3111 32.1288 80.8812 32.2045 80.3736 32.2045ZM80.5781 31C81.1084 31 81.5554 30.8958 81.919 30.6875C82.2865 30.4792 82.563 30.2102 82.7486 29.8807C82.938 29.5511 83.0327 29.2045 83.0327 28.8409V27.6136C82.9759 27.6818 82.8509 27.7443 82.6577 27.8011C82.4683 27.8542 82.2486 27.9015 81.9986 27.9432C81.7524 27.9811 81.5118 28.0152 81.277 28.0455C81.0459 28.072 80.8584 28.0947 80.7145 28.1136C80.366 28.1591 80.0402 28.233 79.7372 28.3352C79.438 28.4337 79.1955 28.5833 79.0099 28.7841C78.8281 28.9811 78.7372 29.25 78.7372 29.5909C78.7372 30.0568 78.9096 30.4091 79.2543 30.6477C79.6027 30.8826 80.044 31 80.5781 31ZM90.1165 32.1818C89.3892 32.1818 88.7472 31.9981 88.1903 31.6307C87.6335 31.2595 87.1979 30.7367 86.8835 30.0625C86.5691 29.3845 86.4119 28.5833 86.4119 27.6591C86.4119 26.7424 86.5691 25.947 86.8835 25.2727C87.1979 24.5985 87.6354 24.0777 88.196 23.7102C88.7566 23.3428 89.4044 23.1591 90.1392 23.1591C90.7074 23.1591 91.1563 23.2538 91.4858 23.4432C91.8191 23.6288 92.0729 23.8409 92.2472 24.0795C92.4252 24.3144 92.5634 24.5076 92.6619 24.6591H92.7756V20.3636H94.1165V32H92.821V30.6591H92.6619C92.5634 30.8182 92.4233 31.0189 92.2415 31.2614C92.0597 31.5 91.8002 31.714 91.4631 31.9034C91.1259 32.089 90.6771 32.1818 90.1165 32.1818ZM90.2983 30.9773C90.8362 30.9773 91.2907 30.8371 91.6619 30.5568C92.0331 30.2727 92.3153 29.8807 92.5085 29.3807C92.7017 28.8769 92.7983 28.2955 92.7983 27.6364C92.7983 26.9848 92.7036 26.4148 92.5142 25.9261C92.3248 25.4337 92.0445 25.0511 91.6733 24.7784C91.3021 24.5019 90.8438 24.3636 90.2983 24.3636C89.7301 24.3636 89.2566 24.5095 88.8778 24.8011C88.5028 25.089 88.2206 25.4811 88.0312 25.9773C87.8456 26.4697 87.7528 27.0227 87.7528 27.6364C87.7528 28.2576 87.8475 28.822 88.0369 29.3295C88.2301 29.8333 88.5142 30.2348 88.8892 30.5341C89.268 30.8295 89.7377 30.9773 90.2983 30.9773ZM100.054 32.1818C99.3267 32.1818 98.6847 31.9981 98.1278 31.6307C97.571 31.2595 97.1354 30.7367 96.821 30.0625C96.5066 29.3845 96.3494 28.5833 96.3494 27.6591C96.3494 26.7424 96.5066 25.947 96.821 25.2727C97.1354 24.5985 97.5729 24.0777 98.1335 23.7102C98.6941 23.3428 99.3419 23.1591 100.077 23.1591C100.645 23.1591 101.094 23.2538 101.423 23.4432C101.757 23.6288 102.01 23.8409 102.185 24.0795C102.363 24.3144 102.501 24.5076 102.599 24.6591H102.713V20.3636H104.054V32H102.759V30.6591H102.599C102.501 30.8182 102.361 31.0189 102.179 31.2614C101.997 31.5 101.738 31.714 101.401 31.9034C101.063 32.089 100.615 32.1818 100.054 32.1818ZM100.236 30.9773C100.774 30.9773 101.228 30.8371 101.599 30.5568C101.971 30.2727 102.253 29.8807 102.446 29.3807C102.639 28.8769 102.736 28.2955 102.736 27.6364C102.736 26.9848 102.641 26.4148 102.452 25.9261C102.262 25.4337 101.982 25.0511 101.611 24.7784C101.24 24.5019 100.781 24.3636 100.236 24.3636C99.6676 24.3636 99.1941 24.5095 98.8153 24.8011C98.4403 25.089 98.1581 25.4811 97.9688 25.9773C97.7831 26.4697 97.6903 27.0227 97.6903 27.6364C97.6903 28.2576 97.785 28.822 97.9744 29.3295C98.1676 29.8333 98.4517 30.2348 98.8267 30.5341C99.2055 30.8295 99.6752 30.9773 100.236 30.9773ZM106.696 32V23.2727H107.991V24.5909H108.082C108.241 24.1591 108.529 23.8087 108.946 23.5398C109.363 23.2708 109.832 23.1364 110.355 23.1364C110.454 23.1364 110.577 23.1383 110.724 23.142C110.872 23.1458 110.984 23.1515 111.06 23.1591V24.5227C111.014 24.5114 110.91 24.4943 110.747 24.4716C110.588 24.4451 110.42 24.4318 110.241 24.4318C109.817 24.4318 109.438 24.5208 109.105 24.6989C108.776 24.8731 108.514 25.1155 108.321 25.4261C108.132 25.733 108.037 26.0833 108.037 26.4773V32H106.696ZM116.043 32.1818C115.202 32.1818 114.476 31.9962 113.866 31.625C113.26 31.25 112.793 30.7273 112.463 30.0568C112.137 29.3826 111.974 28.5985 111.974 27.7045C111.974 26.8106 112.137 26.0227 112.463 25.3409C112.793 24.6553 113.251 24.1212 113.838 23.7386C114.429 23.3523 115.118 23.1591 115.906 23.1591C116.361 23.1591 116.81 23.2348 117.253 23.3864C117.696 23.5379 118.099 23.7841 118.463 24.125C118.827 24.4621 119.116 24.9091 119.332 25.4659C119.548 26.0227 119.656 26.7083 119.656 27.5227V28.0909H112.929V26.9318H118.293C118.293 26.4394 118.194 26 117.997 25.6136C117.804 25.2273 117.527 24.9223 117.168 24.6989C116.812 24.4754 116.391 24.3636 115.906 24.3636C115.372 24.3636 114.91 24.4962 114.52 24.7614C114.134 25.0227 113.836 25.3636 113.628 25.7841C113.42 26.2045 113.315 26.6553 113.315 27.1364V27.9091C113.315 28.5682 113.429 29.1269 113.656 29.5852C113.887 30.0398 114.207 30.3864 114.616 30.625C115.026 30.8598 115.501 30.9773 116.043 30.9773C116.395 30.9773 116.713 30.928 116.997 30.8295C117.285 30.7273 117.533 30.5758 117.741 30.375C117.95 30.1705 118.111 29.9167 118.224 29.6136L119.52 29.9773C119.384 30.4167 119.154 30.803 118.832 31.1364C118.51 31.4659 118.113 31.7235 117.639 31.9091C117.166 32.0909 116.634 32.1818 116.043 32.1818ZM127.878 25.2273L126.673 25.5682C126.598 25.3674 126.486 25.1723 126.338 24.983C126.194 24.7898 125.997 24.6307 125.747 24.5057C125.497 24.3807 125.177 24.3182 124.787 24.3182C124.253 24.3182 123.808 24.4413 123.452 24.6875C123.099 24.9299 122.923 25.2386 122.923 25.6136C122.923 25.947 123.045 26.2102 123.287 26.4034C123.529 26.5966 123.908 26.7576 124.423 26.8864L125.719 27.2045C126.499 27.3939 127.08 27.6837 127.463 28.0739C127.846 28.4602 128.037 28.9583 128.037 29.5682C128.037 30.0682 127.893 30.5152 127.605 30.9091C127.321 31.303 126.923 31.6136 126.412 31.8409C125.901 32.0682 125.306 32.1818 124.628 32.1818C123.738 32.1818 123.001 31.9886 122.418 31.6023C121.834 31.2159 121.465 30.6515 121.31 29.9091L122.582 29.5909C122.704 30.0606 122.933 30.4129 123.27 30.6477C123.611 30.8826 124.056 31 124.605 31C125.23 31 125.726 30.8674 126.094 30.6023C126.465 30.3333 126.651 30.0114 126.651 29.6364C126.651 29.3333 126.545 29.0795 126.332 28.875C126.12 28.6667 125.795 28.5114 125.355 28.4091L123.901 28.0682C123.101 27.8788 122.514 27.5852 122.139 27.1875C121.768 26.786 121.582 26.2841 121.582 25.6818C121.582 25.1894 121.721 24.7538 121.997 24.375C122.277 23.9962 122.658 23.6989 123.139 23.483C123.624 23.267 124.173 23.1591 124.787 23.1591C125.651 23.1591 126.329 23.3485 126.821 23.7273C127.317 24.1061 127.67 24.6061 127.878 25.2273ZM136.237 25.2273L135.033 25.5682C134.957 25.3674 134.845 25.1723 134.697 24.983C134.554 24.7898 134.357 24.6307 134.107 24.5057C133.857 24.3807 133.536 24.3182 133.146 24.3182C132.612 24.3182 132.167 24.4413 131.811 24.6875C131.459 24.9299 131.283 25.2386 131.283 25.6136C131.283 25.947 131.404 26.2102 131.646 26.4034C131.889 26.5966 132.268 26.7576 132.783 26.8864L134.078 27.2045C134.858 27.3939 135.44 27.6837 135.822 28.0739C136.205 28.4602 136.396 28.9583 136.396 29.5682C136.396 30.0682 136.252 30.5152 135.964 30.9091C135.68 31.303 135.283 31.6136 134.771 31.8409C134.26 32.0682 133.665 32.1818 132.987 32.1818C132.097 32.1818 131.36 31.9886 130.777 31.6023C130.194 31.2159 129.824 30.6515 129.669 29.9091L130.942 29.5909C131.063 30.0606 131.292 30.4129 131.629 30.6477C131.97 30.8826 132.415 31 132.964 31C133.589 31 134.086 30.8674 134.453 30.6023C134.824 30.3333 135.01 30.0114 135.01 29.6364C135.01 29.3333 134.904 29.0795 134.692 28.875C134.48 28.6667 134.154 28.5114 133.714 28.4091L132.26 28.0682C131.461 27.8788 130.874 27.5852 130.499 27.1875C130.127 26.786 129.942 26.2841 129.942 25.6818C129.942 25.1894 130.08 24.7538 130.357 24.375C130.637 23.9962 131.018 23.6989 131.499 23.483C131.983 23.267 132.533 23.1591 133.146 23.1591C134.01 23.1591 134.688 23.3485 135.18 23.7273C135.677 24.1061 136.029 24.6061 136.237 25.2273Z" fill="#9D9FA2"/>
<path d="M442.472 23.5625C442.419 23.0663 442.195 22.6799 441.801 22.4034C441.411 22.1269 440.903 21.9886 440.278 21.9886C439.839 21.9886 439.462 22.0549 439.148 22.1875C438.833 22.3201 438.593 22.5 438.426 22.7273C438.259 22.9545 438.174 23.214 438.17 23.5057C438.17 23.7481 438.225 23.9583 438.335 24.1364C438.449 24.3144 438.602 24.4659 438.795 24.5909C438.989 24.7121 439.203 24.8144 439.438 24.8977C439.672 24.9811 439.909 25.0511 440.148 25.108L441.239 25.3807C441.678 25.483 442.1 25.6212 442.506 25.7955C442.915 25.9697 443.28 26.1894 443.602 26.4545C443.928 26.7197 444.186 27.0398 444.375 27.4148C444.564 27.7898 444.659 28.2292 444.659 28.733C444.659 29.4148 444.485 30.0152 444.136 30.5341C443.788 31.0492 443.284 31.4527 442.625 31.7443C441.97 32.0322 441.176 32.1761 440.244 32.1761C439.339 32.1761 438.553 32.036 437.886 31.7557C437.223 31.4754 436.705 31.0663 436.33 30.5284C435.958 29.9905 435.758 29.3352 435.727 28.5625H437.801C437.831 28.9678 437.956 29.3049 438.176 29.5739C438.396 29.8428 438.682 30.0436 439.034 30.1761C439.39 30.3087 439.788 30.375 440.227 30.375C440.686 30.375 441.087 30.3068 441.432 30.1705C441.78 30.0303 442.053 29.8371 442.25 29.5909C442.447 29.3409 442.547 29.0492 442.551 28.7159C442.547 28.4129 442.458 28.1629 442.284 27.9659C442.11 27.7652 441.866 27.5985 441.551 27.4659C441.241 27.3295 440.877 27.2083 440.46 27.1023L439.136 26.7614C438.178 26.5152 437.42 26.142 436.864 25.642C436.311 25.1383 436.034 24.4697 436.034 23.6364C436.034 22.9508 436.22 22.3504 436.591 21.8352C436.966 21.3201 437.475 20.9205 438.119 20.6364C438.763 20.3485 439.492 20.2045 440.307 20.2045C441.133 20.2045 441.856 20.3485 442.477 20.6364C443.102 20.9205 443.593 21.3163 443.949 21.8239C444.305 22.3277 444.489 22.9072 444.5 23.5625H442.472ZM446.047 32V23.2727H448.104V32H446.047ZM447.082 22.0341C446.756 22.0341 446.475 21.9261 446.241 21.7102C446.006 21.4905 445.888 21.2273 445.888 20.9205C445.888 20.6098 446.006 20.3466 446.241 20.1307C446.475 19.911 446.756 19.8011 447.082 19.8011C447.411 19.8011 447.691 19.911 447.922 20.1307C448.157 20.3466 448.275 20.6098 448.275 20.9205C448.275 21.2273 448.157 21.4905 447.922 21.7102C447.691 21.9261 447.411 22.0341 447.082 22.0341ZM453.615 35.4545C452.876 35.4545 452.242 35.3542 451.711 35.1534C451.181 34.9564 450.755 34.6913 450.433 34.358C450.111 34.0246 449.887 33.6553 449.762 33.25L451.615 32.8011C451.698 32.9716 451.819 33.1402 451.978 33.3068C452.137 33.4773 452.352 33.6174 452.62 33.7273C452.893 33.8409 453.236 33.8977 453.649 33.8977C454.232 33.8977 454.715 33.7557 455.098 33.4716C455.48 33.1913 455.672 32.7292 455.672 32.0852V30.4318H455.569C455.463 30.6439 455.308 30.8617 455.103 31.0852C454.903 31.3087 454.636 31.4962 454.302 31.6477C453.973 31.7992 453.558 31.875 453.058 31.875C452.387 31.875 451.78 31.7178 451.234 31.4034C450.692 31.0852 450.261 30.6117 449.939 29.983C449.62 29.3504 449.461 28.5587 449.461 27.608C449.461 26.6496 449.62 25.8409 449.939 25.1818C450.261 24.5189 450.694 24.017 451.24 23.6761C451.785 23.3314 452.393 23.1591 453.064 23.1591C453.575 23.1591 453.995 23.2462 454.325 23.4205C454.658 23.5909 454.923 23.7973 455.12 24.0398C455.317 24.2784 455.467 24.5038 455.569 24.7159H455.683V23.2727H457.711V32.142C457.711 32.8883 457.533 33.5057 457.177 33.9943C456.821 34.483 456.334 34.8485 455.717 35.0909C455.1 35.3333 454.399 35.4545 453.615 35.4545ZM453.632 30.2614C454.067 30.2614 454.439 30.1553 454.745 29.9432C455.052 29.7311 455.285 29.4261 455.444 29.0284C455.603 28.6307 455.683 28.1534 455.683 27.5966C455.683 27.0473 455.603 26.5663 455.444 26.1534C455.289 25.7405 455.058 25.4205 454.751 25.1932C454.448 24.9621 454.075 24.8466 453.632 24.8466C453.173 24.8466 452.791 24.9659 452.484 25.2045C452.177 25.4432 451.946 25.7708 451.791 26.1875C451.636 26.6004 451.558 27.0701 451.558 27.5966C451.558 28.1307 451.636 28.5985 451.791 29C451.95 29.3977 452.183 29.7083 452.49 29.9318C452.8 30.1515 453.181 30.2614 453.632 30.2614ZM461.476 26.8864V32H459.419V23.2727H461.385V24.7557H461.487C461.688 24.267 462.008 23.8788 462.448 23.5909C462.891 23.303 463.438 23.1591 464.09 23.1591C464.692 23.1591 465.217 23.2879 465.664 23.5455C466.114 23.803 466.463 24.1761 466.709 24.6648C466.959 25.1534 467.082 25.7462 467.078 26.4432V32H465.022V26.7614C465.022 26.178 464.87 25.7216 464.567 25.392C464.268 25.0625 463.853 24.8977 463.323 24.8977C462.963 24.8977 462.643 24.9773 462.362 25.1364C462.086 25.2917 461.868 25.517 461.709 25.8125C461.554 26.108 461.476 26.4659 461.476 26.8864ZM474.332 28.3295V23.2727H476.389V32H474.394V30.4489H474.303C474.106 30.9375 473.783 31.3371 473.332 31.6477C472.885 31.9583 472.334 32.1136 471.678 32.1136C471.106 32.1136 470.601 31.9867 470.161 31.733C469.726 31.4754 469.385 31.1023 469.139 30.6136C468.892 30.1212 468.769 29.5265 468.769 28.8295V23.2727H470.826V28.5114C470.826 29.0644 470.978 29.5038 471.281 29.8295C471.584 30.1553 471.981 30.3182 472.474 30.3182C472.777 30.3182 473.07 30.2443 473.355 30.0966C473.639 29.9489 473.872 29.7292 474.053 29.4375C474.239 29.142 474.332 28.7727 474.332 28.3295ZM478.104 35.2727V23.2727H480.126V24.7159H480.246C480.352 24.5038 480.501 24.2784 480.695 24.0398C480.888 23.7973 481.149 23.5909 481.479 23.4205C481.808 23.2462 482.229 23.1591 482.74 23.1591C483.414 23.1591 484.022 23.3314 484.564 23.6761C485.109 24.017 485.541 24.5227 485.859 25.1932C486.181 25.8598 486.342 26.678 486.342 27.6477C486.342 28.6061 486.185 29.4205 485.871 30.0909C485.556 30.7614 485.128 31.2727 484.587 31.625C484.045 31.9773 483.431 32.1534 482.746 32.1534C482.246 32.1534 481.831 32.0701 481.501 31.9034C481.172 31.7367 480.907 31.536 480.706 31.3011C480.509 31.0625 480.356 30.8371 480.246 30.625H480.161V35.2727H478.104ZM480.121 27.6364C480.121 28.2008 480.2 28.6951 480.359 29.1193C480.522 29.5436 480.755 29.875 481.058 30.1136C481.365 30.3485 481.736 30.4659 482.172 30.4659C482.626 30.4659 483.007 30.3447 483.314 30.1023C483.621 29.8561 483.852 29.5208 484.007 29.0966C484.166 28.6686 484.246 28.1818 484.246 27.6364C484.246 27.0947 484.168 26.6136 484.013 26.1932C483.857 25.7727 483.626 25.4432 483.32 25.2045C483.013 24.9659 482.63 24.8466 482.172 24.8466C481.732 24.8466 481.359 24.9621 481.053 25.1932C480.746 25.4242 480.513 25.7481 480.354 26.1648C480.198 26.5814 480.121 27.072 480.121 27.6364Z" fill="#282828"/>
</svg>
