<svg width="123" height="22" viewBox="0 0 123 22" fill="none" xmlns="http://www.w3.org/2000/svg">
<path d="M8.06501 7.98309H17.0176V1.02825H24.9773V20.9662H17.0176V13.0076H8.06501V20.9662H0.0997314V1.02825H8.06501V7.98309Z" fill="#9D9FA2"/>
<path d="M45.497 16.4657C48.0908 16.4657 49.5912 15.6604 49.5912 13.0903V1.02825H57.5565V13.3992C57.5565 19.7363 53.6854 21.6666 45.497 21.6666C37.3086 21.6666 33.4376 19.7363 33.4376 13.3992V1.02825H41.4028V13.0903C41.4028 15.6604 42.9033 16.4657 45.497 16.4657Z" fill="#9D9FA2"/>
<path d="M73.7465 7.31573L83.2624 8.7056C87.2729 9.29574 89.7607 11.1379 89.7607 14.5132C89.7607 19.3723 85.7502 21.6611 76.7976 21.6611C70.673 21.6611 63.9795 20.8228 63.9516 14.96H73.5513C73.5791 15.6273 73.8301 16.0741 74.3991 16.3829C74.9904 16.6642 75.8605 16.8021 77.1044 16.8021C79.5866 16.8021 80.2671 16.1348 80.2671 15.1861C80.2671 14.6015 79.8989 14.0114 78.828 13.8459L69.736 12.5057C65.8426 11.9155 64.2305 9.68181 64.2305 6.89105C64.2305 1.72869 69.3455 0.333313 75.894 0.333313C84.8744 0.333313 88.5726 2.64976 88.8571 6.86899H79.5921C79.5921 6.05823 79.1124 5.55082 78.3762 5.27506C77.6733 4.97171 76.7697 4.85589 75.894 4.85589C73.5178 4.85589 72.7034 5.44052 72.7034 6.27885C72.7034 6.84141 72.9544 7.19991 73.7465 7.31573Z" fill="#9D9FA2"/>
<path d="M105.435 7.98309H114.382V1.02825H122.347V20.9662H114.382V13.0076H105.435V20.9662H97.4694V1.02825H105.435V7.98309Z" fill="#9D9FA2"/>
</svg>
